<svg width="1145" height="523" viewBox="0 0 1145 523" fill="none" xmlns="http://www.w3.org/2000/svg">
<path d="M5.49387 367.125C-52.4712 377.189 456.499 393.688 650.656 232.46C844.814 71.2315 1143.15 19.5636 1143.15 19.5636C1143.15 19.5636 476.449 125.781 359.828 212.095C243.207 298.409 6.49662 267.788 6.49662 267.788M7.78531 314.861C7.78531 314.861 491.445 286.374 481.626 202.867C471.88 119.979 1105.98 29.8752 1136.19 10.2168C1166.4 -9.44168 482.664 100.044 397.278 171.514C311.892 242.984 8.57696 236.437 8.57696 236.437M8.91121 203.323C8.91121 203.323 394.67 255.148 512.154 149.143C629.638 43.1384 995.16 177.549 1139.62 20.3995M1139.62 20.3995C945.277 218.005 978.553 75.4189 826.548 281.294C674.543 487.17 204.961 498.988 204.961 498.988M1139.62 20.3995C980.743 207.905 881.367 92.7388 727.915 267.227C574.463 441.715 12.2583 395.952 12.2583 395.952M7.42899 175.422C7.42899 175.422 159.61 301.578 557.912 159.191C956.215 16.805 1172.28 104.39 1141.39 19.5454C1110.5 -65.2991 863.105 154.429 725.535 328.206C587.965 501.982 11.8273 438.65 11.8273 438.65M12.8124 341.055C12.8124 341.055 125.608 350.037 385.509 289.043C645.409 228.049 834.024 35.5042 1134.16 8.03241M9.60622 483.944C9.60622 483.944 691.397 564.901 784.937 384.579C904.877 153.365 1139.61 21.2706 1139.61 21.2706M20.7125 485.181C20.7125 485.181 851.538 601.376 853.386 418.386C855.233 235.396 1141.38 20.4173 1141.38 20.4173M288.845 493.146C288.845 493.146 783.626 514.415 845.412 334.645C907.197 154.874 1137.85 21.2528 1137.85 21.2528C1137.85 21.2528 876.221 253.037 843.164 382.553C810.108 512.068 436.39 499.604 436.39 499.604" stroke="url(#paint0_linear)" stroke-dasharray="1 5"/>
<defs>
<linearGradient id="paint0_linear" x1="-35.6635" y1="542.611" x2="437.61" y2="-314.221" gradientUnits="userSpaceOnUse">
<stop stop-color="#3391A6"/>
<stop offset="1" stop-color="#3391A6" stop-opacity="0"/>
</linearGradient>
</defs>
</svg>
